<?xml version="1.0" encoding="UTF-8" standalone="no"?><!DOCTYPE svg PUBLIC "-//W3C//DTD SVG 1.1//EN" "http://www.w3.org/Graphics/SVG/1.1/DTD/svg11.dtd"><svg width="100%" height="100%" viewBox="0 0 1000 1000" version="1.1" xmlns="http://www.w3.org/2000/svg" xmlns:xlink="http://www.w3.org/1999/xlink" xml:space="preserve" xmlns:serif="http://www.serif.com/" style="fill-rule:evenodd;clip-rule:evenodd;stroke-linejoin:round;stroke-miterlimit:1.41421;"><rect x="0" y="0" width="1000" height="1000" style="fill:#ff4136;"/><path d="M310.556,350.096c36.562,0.347 71.895,24.908 84.29,60.064c3.316,9.406 5.002,19.384 5.097,29.312c0.127,40.188 0.002,80.377 0.002,120.565c-0.115,36.674 -24.813,72.381 -60.074,84.809c-9.39,3.31 -19.299,5.002 -29.315,5.097c-40.193,0.127 -80.387,0.002 -120.581,0.002c-29.539,-0.093 -58.721,-15.629 -75.129,-40.546c-9.495,-14.418 -14.626,-31.642 -14.789,-48.831c-0.127,-40.189 -0.002,-80.377 -0.002,-120.566c0.117,-36.682 24.748,-72.358 60.074,-84.809c9.391,-3.31 19.3,-5.002 29.316,-5.097c40.37,-0.128 80.741,-0.128 121.111,0Zm-120.486,59.969c-15.632,0.049 -29.881,13.512 -30.036,29.787c-0.127,40.177 -0.38,80.357 0.002,120.532c0.244,15.384 13.561,29.335 29.592,29.588c40.246,0.385 80.498,0.385 120.744,0c15.406,-0.243 29.339,-13.559 29.593,-29.588c0.384,-40.241 0.384,-80.487 0,-120.728c-0.244,-15.396 -13.566,-29.335 -29.593,-29.589c-40.099,-0.381 -80.201,-0.002 -120.302,-0.002Z" style="fill:#fff;fill-rule:nonzero;"/><path d="M900,350l0,59.924c-19.977,0.047 -39.954,0.141 -59.93,0.141c-15.632,0.049 -29.881,13.512 -30.036,29.787c-0.127,40.177 -0.38,80.357 0.002,120.532c0.244,15.384 13.561,29.335 29.592,29.588c20.123,0.193 40.248,0.289 60.372,0.289l0,59.73c-20.008,-0.015 -40.017,-0.046 -60.025,-0.046c-29.539,-0.093 -58.721,-15.629 -75.129,-40.546c-9.495,-14.418 -14.626,-31.642 -14.789,-48.831c-0.127,-40.189 -0.002,-80.377 -0.002,-120.566c0.117,-36.682 24.748,-72.358 60.074,-84.809c9.391,-3.31 19.3,-5.002 29.316,-5.097c20.185,-0.064 40.37,-0.096 60.555,-0.096Z" style="fill:#fff;"/><path d="M449.877,543.754l0,-87.5l125.246,0l0,-81.25l125,125l-125,125l0,-81.25l-125.246,0Z" style="fill:#fff;"/></svg>